<mxfile host="Electron" agent="Mozilla/5.0 (Windows NT 10.0; Win64; x64) AppleWebKit/537.36 (KHTML, like Gecko) draw.io/24.7.8 Chrome/128.0.6613.36 Electron/32.0.1 Safari/537.36" version="24.7.8">
  <diagram name="PÃ¡gina-1" id="h4YsIUtn6Sc1W326wzpE">
    <mxGraphModel dx="3193" dy="1738" grid="1" gridSize="10" guides="1" tooltips="1" connect="1" arrows="1" fold="1" page="0" pageScale="1" pageWidth="827" pageHeight="1169" math="0" shadow="0">
      <root>
        <mxCell id="0" />
        <mxCell id="1" parent="0" />
        <mxCell id="IxFJVcucLCqql2dpNRZB-10" style="edgeStyle=orthogonalEdgeStyle;rounded=0;orthogonalLoop=1;jettySize=auto;html=1;entryX=0;entryY=0.5;entryDx=0;entryDy=0;endArrow=none;endFill=0;" edge="1" parent="1" source="IxFJVcucLCqql2dpNRZB-1" target="IxFJVcucLCqql2dpNRZB-9">
          <mxGeometry relative="1" as="geometry" />
        </mxCell>
        <mxCell id="IxFJVcucLCqql2dpNRZB-1" value="Banco" style="rounded=0;whiteSpace=wrap;html=1;" vertex="1" parent="1">
          <mxGeometry x="-70" y="-110" width="120" height="60" as="geometry" />
        </mxCell>
        <mxCell id="IxFJVcucLCqql2dpNRZB-12" style="edgeStyle=orthogonalEdgeStyle;rounded=0;orthogonalLoop=1;jettySize=auto;html=1;entryX=0.5;entryY=1;entryDx=0;entryDy=0;endArrow=none;endFill=0;exitX=0.5;exitY=0;exitDx=0;exitDy=0;" edge="1" parent="1" source="IxFJVcucLCqql2dpNRZB-28" target="IxFJVcucLCqql2dpNRZB-6">
          <mxGeometry relative="1" as="geometry" />
        </mxCell>
        <mxCell id="IxFJVcucLCqql2dpNRZB-15" style="edgeStyle=orthogonalEdgeStyle;rounded=0;orthogonalLoop=1;jettySize=auto;html=1;entryX=0.5;entryY=0;entryDx=0;entryDy=0;endArrow=none;endFill=0;" edge="1" parent="1" source="IxFJVcucLCqql2dpNRZB-2" target="IxFJVcucLCqql2dpNRZB-14">
          <mxGeometry relative="1" as="geometry">
            <mxPoint x="310" y="20" as="targetPoint" />
          </mxGeometry>
        </mxCell>
        <mxCell id="IxFJVcucLCqql2dpNRZB-2" value="Sucursal" style="rounded=0;whiteSpace=wrap;html=1;" vertex="1" parent="1">
          <mxGeometry x="240" y="-110" width="120" height="60" as="geometry" />
        </mxCell>
        <mxCell id="IxFJVcucLCqql2dpNRZB-3" value="Prestamo" style="rounded=0;whiteSpace=wrap;html=1;" vertex="1" parent="1">
          <mxGeometry x="-530" y="-230" width="120" height="60" as="geometry" />
        </mxCell>
        <mxCell id="IxFJVcucLCqql2dpNRZB-88" style="edgeStyle=orthogonalEdgeStyle;rounded=0;orthogonalLoop=1;jettySize=auto;html=1;endArrow=classic;endFill=1;exitX=0;exitY=0.5;exitDx=0;exitDy=0;" edge="1" parent="1" source="IxFJVcucLCqql2dpNRZB-87" target="IxFJVcucLCqql2dpNRZB-4">
          <mxGeometry relative="1" as="geometry" />
        </mxCell>
        <mxCell id="IxFJVcucLCqql2dpNRZB-4" value="Plazo fijo" style="rounded=0;whiteSpace=wrap;html=1;" vertex="1" parent="1">
          <mxGeometry x="-300" y="-230" width="120" height="60" as="geometry" />
        </mxCell>
        <mxCell id="IxFJVcucLCqql2dpNRZB-5" value="Caja de ahorro" style="rounded=0;whiteSpace=wrap;html=1;" vertex="1" parent="1">
          <mxGeometry x="-1520" y="10" width="120" height="60" as="geometry" />
        </mxCell>
        <mxCell id="IxFJVcucLCqql2dpNRZB-8" style="edgeStyle=orthogonalEdgeStyle;rounded=0;orthogonalLoop=1;jettySize=auto;html=1;entryX=0.5;entryY=1;entryDx=0;entryDy=0;endArrow=none;endFill=0;" edge="1" parent="1" source="IxFJVcucLCqql2dpNRZB-6" target="IxFJVcucLCqql2dpNRZB-7">
          <mxGeometry relative="1" as="geometry" />
        </mxCell>
        <mxCell id="IxFJVcucLCqql2dpNRZB-6" value="Ciudad" style="rounded=0;whiteSpace=wrap;html=1;" vertex="1" parent="1">
          <mxGeometry x="240" y="-340" width="120" height="60" as="geometry" />
        </mxCell>
        <mxCell id="IxFJVcucLCqql2dpNRZB-7" value="Nombre" style="ellipse;whiteSpace=wrap;html=1;" vertex="1" parent="1">
          <mxGeometry x="240" y="-460" width="120" height="80" as="geometry" />
        </mxCell>
        <mxCell id="IxFJVcucLCqql2dpNRZB-11" style="edgeStyle=orthogonalEdgeStyle;rounded=0;orthogonalLoop=1;jettySize=auto;html=1;entryX=0;entryY=0.5;entryDx=0;entryDy=0;endArrow=none;endFill=0;exitX=1;exitY=0.5;exitDx=0;exitDy=0;" edge="1" parent="1" source="IxFJVcucLCqql2dpNRZB-9" target="IxFJVcucLCqql2dpNRZB-2">
          <mxGeometry relative="1" as="geometry">
            <mxPoint x="200" y="-80" as="sourcePoint" />
          </mxGeometry>
        </mxCell>
        <mxCell id="IxFJVcucLCqql2dpNRZB-9" value="Posee" style="rhombus;whiteSpace=wrap;html=1;" vertex="1" parent="1">
          <mxGeometry x="90" y="-120" width="80" height="80" as="geometry" />
        </mxCell>
        <mxCell id="IxFJVcucLCqql2dpNRZB-13" value="Numero" style="ellipse;whiteSpace=wrap;html=1;" vertex="1" parent="1">
          <mxGeometry x="400" y="-280" width="120" height="80" as="geometry" />
        </mxCell>
        <mxCell id="IxFJVcucLCqql2dpNRZB-17" style="edgeStyle=orthogonalEdgeStyle;rounded=0;orthogonalLoop=1;jettySize=auto;html=1;entryX=0.5;entryY=0;entryDx=0;entryDy=0;endArrow=none;endFill=0;" edge="1" parent="1" source="IxFJVcucLCqql2dpNRZB-14" target="IxFJVcucLCqql2dpNRZB-16">
          <mxGeometry relative="1" as="geometry" />
        </mxCell>
        <mxCell id="IxFJVcucLCqql2dpNRZB-14" value="Trabaja" style="rhombus;whiteSpace=wrap;html=1;" vertex="1" parent="1">
          <mxGeometry x="260" y="120" width="80" height="80" as="geometry" />
        </mxCell>
        <mxCell id="IxFJVcucLCqql2dpNRZB-43" style="edgeStyle=orthogonalEdgeStyle;rounded=0;orthogonalLoop=1;jettySize=auto;html=1;entryX=0.5;entryY=0;entryDx=0;entryDy=0;endArrow=none;endFill=0;" edge="1" parent="1" source="IxFJVcucLCqql2dpNRZB-16" target="IxFJVcucLCqql2dpNRZB-39">
          <mxGeometry relative="1" as="geometry">
            <mxPoint x="300" y="430" as="targetPoint" />
          </mxGeometry>
        </mxCell>
        <mxCell id="IxFJVcucLCqql2dpNRZB-107" style="edgeStyle=orthogonalEdgeStyle;rounded=0;orthogonalLoop=1;jettySize=auto;html=1;entryX=1;entryY=0.5;entryDx=0;entryDy=0;endArrow=none;endFill=0;" edge="1" parent="1" source="IxFJVcucLCqql2dpNRZB-16" target="IxFJVcucLCqql2dpNRZB-106">
          <mxGeometry relative="1" as="geometry">
            <Array as="points">
              <mxPoint x="170" y="350" />
              <mxPoint x="170" y="200" />
            </Array>
          </mxGeometry>
        </mxCell>
        <mxCell id="IxFJVcucLCqql2dpNRZB-16" value="Empleado" style="rounded=0;whiteSpace=wrap;html=1;" vertex="1" parent="1">
          <mxGeometry x="240" y="330" width="120" height="60" as="geometry" />
        </mxCell>
        <mxCell id="IxFJVcucLCqql2dpNRZB-18" value="" style="endArrow=none;html=1;rounded=0;exitX=1;exitY=0;exitDx=0;exitDy=0;entryX=0.083;entryY=0.825;entryDx=0;entryDy=0;entryPerimeter=0;" edge="1" parent="1" source="IxFJVcucLCqql2dpNRZB-2" target="IxFJVcucLCqql2dpNRZB-13">
          <mxGeometry width="50" height="50" relative="1" as="geometry">
            <mxPoint x="350" as="sourcePoint" />
            <mxPoint x="400" y="-50" as="targetPoint" />
          </mxGeometry>
        </mxCell>
        <mxCell id="IxFJVcucLCqql2dpNRZB-20" value="Nombre" style="ellipse;whiteSpace=wrap;html=1;" vertex="1" parent="1">
          <mxGeometry x="530" y="-270" width="120" height="80" as="geometry" />
        </mxCell>
        <mxCell id="IxFJVcucLCqql2dpNRZB-21" value="" style="endArrow=none;html=1;rounded=0;exitX=1;exitY=0.25;exitDx=0;exitDy=0;entryX=0;entryY=0.5;entryDx=0;entryDy=0;" edge="1" parent="1" source="IxFJVcucLCqql2dpNRZB-2" target="IxFJVcucLCqql2dpNRZB-20">
          <mxGeometry width="50" height="50" relative="1" as="geometry">
            <mxPoint x="370" y="30" as="sourcePoint" />
            <mxPoint x="420" y="-20" as="targetPoint" />
          </mxGeometry>
        </mxCell>
        <mxCell id="IxFJVcucLCqql2dpNRZB-22" value="Direccion" style="ellipse;whiteSpace=wrap;html=1;" vertex="1" parent="1">
          <mxGeometry x="490" y="-190" width="120" height="80" as="geometry" />
        </mxCell>
        <mxCell id="IxFJVcucLCqql2dpNRZB-23" value="Numero telefono" style="ellipse;whiteSpace=wrap;html=1;" vertex="1" parent="1">
          <mxGeometry x="520" y="-110" width="120" height="80" as="geometry" />
        </mxCell>
        <mxCell id="IxFJVcucLCqql2dpNRZB-24" value="Horario At. publico" style="ellipse;whiteSpace=wrap;html=1;" vertex="1" parent="1">
          <mxGeometry x="510" y="-30" width="120" height="80" as="geometry" />
        </mxCell>
        <mxCell id="IxFJVcucLCqql2dpNRZB-25" value="" style="endArrow=none;html=1;rounded=0;entryX=0;entryY=0.5;entryDx=0;entryDy=0;exitX=1;exitY=0.5;exitDx=0;exitDy=0;" edge="1" parent="1" source="IxFJVcucLCqql2dpNRZB-2" target="IxFJVcucLCqql2dpNRZB-22">
          <mxGeometry width="50" height="50" relative="1" as="geometry">
            <mxPoint x="390" y="-50" as="sourcePoint" />
            <mxPoint x="440" y="-100" as="targetPoint" />
          </mxGeometry>
        </mxCell>
        <mxCell id="IxFJVcucLCqql2dpNRZB-26" value="" style="endArrow=none;html=1;rounded=0;entryX=0;entryY=0.5;entryDx=0;entryDy=0;" edge="1" parent="1" source="IxFJVcucLCqql2dpNRZB-2" target="IxFJVcucLCqql2dpNRZB-23">
          <mxGeometry width="50" height="50" relative="1" as="geometry">
            <mxPoint x="400" y="-50" as="sourcePoint" />
            <mxPoint x="450" y="-100" as="targetPoint" />
          </mxGeometry>
        </mxCell>
        <mxCell id="IxFJVcucLCqql2dpNRZB-27" value="" style="endArrow=none;html=1;rounded=0;entryX=-0.025;entryY=0.413;entryDx=0;entryDy=0;entryPerimeter=0;exitX=1;exitY=0.75;exitDx=0;exitDy=0;" edge="1" parent="1" source="IxFJVcucLCqql2dpNRZB-2" target="IxFJVcucLCqql2dpNRZB-24">
          <mxGeometry width="50" height="50" relative="1" as="geometry">
            <mxPoint x="380" y="-10" as="sourcePoint" />
            <mxPoint x="430" y="-60" as="targetPoint" />
          </mxGeometry>
        </mxCell>
        <mxCell id="IxFJVcucLCqql2dpNRZB-29" style="edgeStyle=orthogonalEdgeStyle;rounded=0;orthogonalLoop=1;jettySize=auto;html=1;entryX=0.5;entryY=0;entryDx=0;entryDy=0;endArrow=none;endFill=0;" edge="1" parent="1" source="IxFJVcucLCqql2dpNRZB-28" target="IxFJVcucLCqql2dpNRZB-2">
          <mxGeometry relative="1" as="geometry" />
        </mxCell>
        <mxCell id="IxFJVcucLCqql2dpNRZB-28" value="Ubica" style="rhombus;whiteSpace=wrap;html=1;" vertex="1" parent="1">
          <mxGeometry x="260" y="-240" width="80" height="80" as="geometry" />
        </mxCell>
        <mxCell id="IxFJVcucLCqql2dpNRZB-30" value="Nombre" style="ellipse;whiteSpace=wrap;html=1;" vertex="1" parent="1">
          <mxGeometry x="390" y="160" width="120" height="80" as="geometry" />
        </mxCell>
        <mxCell id="IxFJVcucLCqql2dpNRZB-31" value="Apellido" style="ellipse;whiteSpace=wrap;html=1;" vertex="1" parent="1">
          <mxGeometry x="580" y="410" width="120" height="80" as="geometry" />
        </mxCell>
        <mxCell id="IxFJVcucLCqql2dpNRZB-32" value="Direccion" style="ellipse;whiteSpace=wrap;html=1;" vertex="1" parent="1">
          <mxGeometry x="330" y="450" width="120" height="80" as="geometry" />
        </mxCell>
        <mxCell id="IxFJVcucLCqql2dpNRZB-33" value="Telefono" style="ellipse;whiteSpace=wrap;html=1;" vertex="1" parent="1">
          <mxGeometry x="610" y="260" width="120" height="80" as="geometry" />
        </mxCell>
        <mxCell id="IxFJVcucLCqql2dpNRZB-34" value="Documento" style="rounded=0;whiteSpace=wrap;html=1;" vertex="1" parent="1">
          <mxGeometry x="500" y="530" width="120" height="60" as="geometry" />
        </mxCell>
        <mxCell id="IxFJVcucLCqql2dpNRZB-35" value="Numero" style="ellipse;whiteSpace=wrap;html=1;" vertex="1" parent="1">
          <mxGeometry x="720" y="480" width="120" height="80" as="geometry" />
        </mxCell>
        <mxCell id="IxFJVcucLCqql2dpNRZB-36" value="Tipo" style="ellipse;whiteSpace=wrap;html=1;" vertex="1" parent="1">
          <mxGeometry x="720" y="570" width="120" height="80" as="geometry" />
        </mxCell>
        <mxCell id="IxFJVcucLCqql2dpNRZB-37" value="" style="endArrow=none;html=1;rounded=0;entryX=0;entryY=0.5;entryDx=0;entryDy=0;exitX=1;exitY=0.5;exitDx=0;exitDy=0;" edge="1" parent="1" source="IxFJVcucLCqql2dpNRZB-34" target="IxFJVcucLCqql2dpNRZB-35">
          <mxGeometry width="50" height="50" relative="1" as="geometry">
            <mxPoint x="600" y="640" as="sourcePoint" />
            <mxPoint x="650" y="590" as="targetPoint" />
          </mxGeometry>
        </mxCell>
        <mxCell id="IxFJVcucLCqql2dpNRZB-38" value="" style="endArrow=none;html=1;rounded=0;entryX=-0.017;entryY=0.425;entryDx=0;entryDy=0;exitX=1;exitY=0.75;exitDx=0;exitDy=0;entryPerimeter=0;" edge="1" parent="1" source="IxFJVcucLCqql2dpNRZB-34" target="IxFJVcucLCqql2dpNRZB-36">
          <mxGeometry width="50" height="50" relative="1" as="geometry">
            <mxPoint x="630" y="520" as="sourcePoint" />
            <mxPoint x="700" y="520" as="targetPoint" />
          </mxGeometry>
        </mxCell>
        <mxCell id="IxFJVcucLCqql2dpNRZB-44" style="edgeStyle=orthogonalEdgeStyle;rounded=0;orthogonalLoop=1;jettySize=auto;html=1;entryX=0;entryY=0.5;entryDx=0;entryDy=0;endArrow=none;endFill=0;" edge="1" parent="1" source="IxFJVcucLCqql2dpNRZB-39" target="IxFJVcucLCqql2dpNRZB-34">
          <mxGeometry relative="1" as="geometry" />
        </mxCell>
        <mxCell id="IxFJVcucLCqql2dpNRZB-39" value="Tiene" style="rhombus;whiteSpace=wrap;html=1;" vertex="1" parent="1">
          <mxGeometry x="260" y="520" width="80" height="80" as="geometry" />
        </mxCell>
        <mxCell id="IxFJVcucLCqql2dpNRZB-40" value="Numero legajo" style="ellipse;whiteSpace=wrap;html=1;" vertex="1" parent="1">
          <mxGeometry x="640" y="340" width="120" height="80" as="geometry" />
        </mxCell>
        <mxCell id="IxFJVcucLCqql2dpNRZB-41" value="Password" style="ellipse;whiteSpace=wrap;html=1;" vertex="1" parent="1">
          <mxGeometry x="460" y="440" width="120" height="80" as="geometry" />
        </mxCell>
        <mxCell id="IxFJVcucLCqql2dpNRZB-42" value="Cargo" style="ellipse;whiteSpace=wrap;html=1;" vertex="1" parent="1">
          <mxGeometry x="530" y="170" width="120" height="80" as="geometry" />
        </mxCell>
        <mxCell id="IxFJVcucLCqql2dpNRZB-45" value="" style="endArrow=none;html=1;rounded=0;entryX=0.092;entryY=0.813;entryDx=0;entryDy=0;entryPerimeter=0;exitX=1;exitY=0;exitDx=0;exitDy=0;" edge="1" parent="1" source="IxFJVcucLCqql2dpNRZB-16" target="IxFJVcucLCqql2dpNRZB-30">
          <mxGeometry width="50" height="50" relative="1" as="geometry">
            <mxPoint x="360" y="340" as="sourcePoint" />
            <mxPoint x="410" y="290" as="targetPoint" />
          </mxGeometry>
        </mxCell>
        <mxCell id="IxFJVcucLCqql2dpNRZB-46" value="" style="endArrow=none;html=1;rounded=0;entryX=0;entryY=0.5;entryDx=0;entryDy=0;exitX=1;exitY=0.25;exitDx=0;exitDy=0;" edge="1" parent="1" source="IxFJVcucLCqql2dpNRZB-16" target="IxFJVcucLCqql2dpNRZB-40">
          <mxGeometry width="50" height="50" relative="1" as="geometry">
            <mxPoint x="370" y="340" as="sourcePoint" />
            <mxPoint x="431" y="275" as="targetPoint" />
          </mxGeometry>
        </mxCell>
        <mxCell id="IxFJVcucLCqql2dpNRZB-47" value="" style="endArrow=none;html=1;rounded=0;entryX=0.008;entryY=0.3;entryDx=0;entryDy=0;exitX=1;exitY=0.5;exitDx=0;exitDy=0;entryPerimeter=0;" edge="1" parent="1" source="IxFJVcucLCqql2dpNRZB-16" target="IxFJVcucLCqql2dpNRZB-31">
          <mxGeometry width="50" height="50" relative="1" as="geometry">
            <mxPoint x="370" y="355" as="sourcePoint" />
            <mxPoint x="600" y="300" as="targetPoint" />
          </mxGeometry>
        </mxCell>
        <mxCell id="IxFJVcucLCqql2dpNRZB-48" value="" style="endArrow=none;html=1;rounded=0;exitX=1;exitY=0.75;exitDx=0;exitDy=0;" edge="1" parent="1" source="IxFJVcucLCqql2dpNRZB-16" target="IxFJVcucLCqql2dpNRZB-41">
          <mxGeometry width="50" height="50" relative="1" as="geometry">
            <mxPoint x="370" y="370" as="sourcePoint" />
            <mxPoint x="571" y="364" as="targetPoint" />
          </mxGeometry>
        </mxCell>
        <mxCell id="IxFJVcucLCqql2dpNRZB-49" value="" style="endArrow=none;html=1;rounded=0;exitX=1;exitY=1;exitDx=0;exitDy=0;entryX=0.317;entryY=0.038;entryDx=0;entryDy=0;entryPerimeter=0;" edge="1" parent="1" source="IxFJVcucLCqql2dpNRZB-16" target="IxFJVcucLCqql2dpNRZB-32">
          <mxGeometry width="50" height="50" relative="1" as="geometry">
            <mxPoint x="370" y="385" as="sourcePoint" />
            <mxPoint x="477" y="422" as="targetPoint" />
          </mxGeometry>
        </mxCell>
        <mxCell id="IxFJVcucLCqql2dpNRZB-50" value="" style="endArrow=none;html=1;rounded=0;exitX=1;exitY=0;exitDx=0;exitDy=0;" edge="1" parent="1" source="IxFJVcucLCqql2dpNRZB-16" target="IxFJVcucLCqql2dpNRZB-42">
          <mxGeometry width="50" height="50" relative="1" as="geometry">
            <mxPoint x="400" y="370" as="sourcePoint" />
            <mxPoint x="450" y="320" as="targetPoint" />
          </mxGeometry>
        </mxCell>
        <mxCell id="IxFJVcucLCqql2dpNRZB-51" value="" style="endArrow=none;html=1;rounded=0;exitX=1;exitY=0.15;exitDx=0;exitDy=0;entryX=0.008;entryY=0.7;entryDx=0;entryDy=0;entryPerimeter=0;exitPerimeter=0;" edge="1" parent="1" source="IxFJVcucLCqql2dpNRZB-16" target="IxFJVcucLCqql2dpNRZB-33">
          <mxGeometry width="50" height="50" relative="1" as="geometry">
            <mxPoint x="370" y="340" as="sourcePoint" />
            <mxPoint x="496" y="298" as="targetPoint" />
          </mxGeometry>
        </mxCell>
        <mxCell id="IxFJVcucLCqql2dpNRZB-57" style="edgeStyle=orthogonalEdgeStyle;rounded=0;orthogonalLoop=1;jettySize=auto;html=1;entryX=0.5;entryY=0;entryDx=0;entryDy=0;endArrow=none;endFill=0;" edge="1" parent="1" source="IxFJVcucLCqql2dpNRZB-52" target="IxFJVcucLCqql2dpNRZB-56">
          <mxGeometry relative="1" as="geometry" />
        </mxCell>
        <mxCell id="IxFJVcucLCqql2dpNRZB-64" style="edgeStyle=orthogonalEdgeStyle;rounded=0;orthogonalLoop=1;jettySize=auto;html=1;entryX=0.5;entryY=1;entryDx=0;entryDy=0;endArrow=none;endFill=0;" edge="1" parent="1" source="IxFJVcucLCqql2dpNRZB-52" target="IxFJVcucLCqql2dpNRZB-63">
          <mxGeometry relative="1" as="geometry" />
        </mxCell>
        <mxCell id="IxFJVcucLCqql2dpNRZB-67" style="edgeStyle=orthogonalEdgeStyle;rounded=0;orthogonalLoop=1;jettySize=auto;html=1;entryX=1;entryY=0.5;entryDx=0;entryDy=0;endArrow=none;endFill=0;" edge="1" parent="1" source="IxFJVcucLCqql2dpNRZB-52" target="IxFJVcucLCqql2dpNRZB-66">
          <mxGeometry relative="1" as="geometry">
            <Array as="points">
              <mxPoint x="-520" y="440" />
              <mxPoint x="-520" y="440" />
            </Array>
          </mxGeometry>
        </mxCell>
        <mxCell id="IxFJVcucLCqql2dpNRZB-103" style="edgeStyle=orthogonalEdgeStyle;rounded=0;orthogonalLoop=1;jettySize=auto;html=1;exitX=0;exitY=0.5;exitDx=0;exitDy=0;endArrow=none;endFill=0;" edge="1" parent="1" source="IxFJVcucLCqql2dpNRZB-102" target="IxFJVcucLCqql2dpNRZB-52">
          <mxGeometry relative="1" as="geometry">
            <Array as="points">
              <mxPoint x="-115" y="290" />
              <mxPoint x="-115" y="340" />
              <mxPoint x="-200" y="340" />
            </Array>
          </mxGeometry>
        </mxCell>
        <mxCell id="IxFJVcucLCqql2dpNRZB-115" style="edgeStyle=orthogonalEdgeStyle;rounded=0;orthogonalLoop=1;jettySize=auto;html=1;entryX=1;entryY=0.5;entryDx=0;entryDy=0;endArrow=none;endFill=0;" edge="1" parent="1" source="IxFJVcucLCqql2dpNRZB-52" target="IxFJVcucLCqql2dpNRZB-114">
          <mxGeometry relative="1" as="geometry" />
        </mxCell>
        <mxCell id="IxFJVcucLCqql2dpNRZB-52" value="Cliente" style="rounded=0;whiteSpace=wrap;html=1;" vertex="1" parent="1">
          <mxGeometry x="-300" y="390" width="120" height="60" as="geometry" />
        </mxCell>
        <mxCell id="IxFJVcucLCqql2dpNRZB-53" value="Nombre" style="ellipse;whiteSpace=wrap;html=1;" vertex="1" parent="1">
          <mxGeometry x="-230" y="570" width="120" height="80" as="geometry" />
        </mxCell>
        <mxCell id="IxFJVcucLCqql2dpNRZB-54" value="Apellido" style="ellipse;whiteSpace=wrap;html=1;" vertex="1" parent="1">
          <mxGeometry x="-110" y="540" width="120" height="80" as="geometry" />
        </mxCell>
        <mxCell id="IxFJVcucLCqql2dpNRZB-58" style="edgeStyle=orthogonalEdgeStyle;rounded=0;orthogonalLoop=1;jettySize=auto;html=1;entryX=0.5;entryY=1;entryDx=0;entryDy=0;endArrow=none;endFill=0;" edge="1" parent="1" source="IxFJVcucLCqql2dpNRZB-56" target="IxFJVcucLCqql2dpNRZB-34">
          <mxGeometry relative="1" as="geometry">
            <Array as="points">
              <mxPoint x="10" y="670" />
              <mxPoint x="560" y="670" />
            </Array>
          </mxGeometry>
        </mxCell>
        <mxCell id="IxFJVcucLCqql2dpNRZB-56" value="Se identifica" style="rhombus;whiteSpace=wrap;html=1;" vertex="1" parent="1">
          <mxGeometry x="-280" y="630" width="80" height="80" as="geometry" />
        </mxCell>
        <mxCell id="IxFJVcucLCqql2dpNRZB-59" value="Tipo" style="ellipse;whiteSpace=wrap;html=1;" vertex="1" parent="1">
          <mxGeometry x="-70" y="350" width="120" height="80" as="geometry" />
        </mxCell>
        <mxCell id="IxFJVcucLCqql2dpNRZB-60" value="Direccion" style="ellipse;whiteSpace=wrap;html=1;" vertex="1" parent="1">
          <mxGeometry x="-450" y="470" width="120" height="80" as="geometry" />
        </mxCell>
        <mxCell id="IxFJVcucLCqql2dpNRZB-61" value="Telefono" style="ellipse;whiteSpace=wrap;html=1;" vertex="1" parent="1">
          <mxGeometry x="-380" y="560" width="120" height="80" as="geometry" />
        </mxCell>
        <mxCell id="IxFJVcucLCqql2dpNRZB-62" value="Fecha nacimiento" style="ellipse;whiteSpace=wrap;html=1;" vertex="1" parent="1">
          <mxGeometry x="-80" y="450" width="120" height="80" as="geometry" />
        </mxCell>
        <mxCell id="IxFJVcucLCqql2dpNRZB-84" style="edgeStyle=orthogonalEdgeStyle;rounded=0;orthogonalLoop=1;jettySize=auto;html=1;entryX=0.5;entryY=1;entryDx=0;entryDy=0;exitX=0.5;exitY=0;exitDx=0;exitDy=0;" edge="1" parent="1" source="IxFJVcucLCqql2dpNRZB-63" target="IxFJVcucLCqql2dpNRZB-4">
          <mxGeometry relative="1" as="geometry">
            <mxPoint x="-230" y="40" as="sourcePoint" />
          </mxGeometry>
        </mxCell>
        <mxCell id="IxFJVcucLCqql2dpNRZB-105" style="edgeStyle=orthogonalEdgeStyle;rounded=0;orthogonalLoop=1;jettySize=auto;html=1;entryX=0.75;entryY=1;entryDx=0;entryDy=0;" edge="1" parent="1" source="IxFJVcucLCqql2dpNRZB-63" target="IxFJVcucLCqql2dpNRZB-3">
          <mxGeometry relative="1" as="geometry" />
        </mxCell>
        <mxCell id="IxFJVcucLCqql2dpNRZB-63" value="Solicita" style="rhombus;whiteSpace=wrap;html=1;" vertex="1" parent="1">
          <mxGeometry x="-280" y="140" width="80" height="80" as="geometry" />
        </mxCell>
        <mxCell id="IxFJVcucLCqql2dpNRZB-69" style="edgeStyle=orthogonalEdgeStyle;rounded=0;orthogonalLoop=1;jettySize=auto;html=1;entryX=1;entryY=0.5;entryDx=0;entryDy=0;endArrow=none;endFill=0;" edge="1" parent="1" source="IxFJVcucLCqql2dpNRZB-66" target="IxFJVcucLCqql2dpNRZB-68">
          <mxGeometry relative="1" as="geometry" />
        </mxCell>
        <mxCell id="IxFJVcucLCqql2dpNRZB-66" value="Entrega" style="rhombus;whiteSpace=wrap;html=1;" vertex="1" parent="1">
          <mxGeometry x="-810" y="400" width="80" height="80" as="geometry" />
        </mxCell>
        <mxCell id="IxFJVcucLCqql2dpNRZB-68" value="Dinero" style="rounded=0;whiteSpace=wrap;html=1;" vertex="1" parent="1">
          <mxGeometry x="-1060" y="410" width="120" height="60" as="geometry" />
        </mxCell>
        <mxCell id="IxFJVcucLCqql2dpNRZB-70" value="Cantidad" style="ellipse;whiteSpace=wrap;html=1;" vertex="1" parent="1">
          <mxGeometry x="-1260" y="400" width="120" height="80" as="geometry" />
        </mxCell>
        <mxCell id="IxFJVcucLCqql2dpNRZB-71" value="" style="endArrow=none;html=1;rounded=0;entryX=0;entryY=0.5;entryDx=0;entryDy=0;exitX=1;exitY=0.5;exitDx=0;exitDy=0;" edge="1" parent="1" source="IxFJVcucLCqql2dpNRZB-70" target="IxFJVcucLCqql2dpNRZB-68">
          <mxGeometry width="50" height="50" relative="1" as="geometry">
            <mxPoint x="-1130" y="530" as="sourcePoint" />
            <mxPoint x="-1080" y="480" as="targetPoint" />
          </mxGeometry>
        </mxCell>
        <mxCell id="IxFJVcucLCqql2dpNRZB-72" value="Periodo de tiempo" style="ellipse;whiteSpace=wrap;html=1;" vertex="1" parent="1">
          <mxGeometry x="-950" y="500" width="120" height="80" as="geometry" />
        </mxCell>
        <mxCell id="IxFJVcucLCqql2dpNRZB-73" value="Fecha inicio" style="ellipse;whiteSpace=wrap;html=1;" vertex="1" parent="1">
          <mxGeometry x="-830" y="500" width="120" height="80" as="geometry" />
        </mxCell>
        <mxCell id="IxFJVcucLCqql2dpNRZB-74" value="Fecha final&amp;nbsp;" style="ellipse;whiteSpace=wrap;html=1;" vertex="1" parent="1">
          <mxGeometry x="-710" y="490" width="120" height="80" as="geometry" />
        </mxCell>
        <mxCell id="IxFJVcucLCqql2dpNRZB-75" value="" style="endArrow=none;html=1;rounded=0;entryX=0;entryY=1;entryDx=0;entryDy=0;exitX=0.908;exitY=0.15;exitDx=0;exitDy=0;exitPerimeter=0;" edge="1" parent="1" source="IxFJVcucLCqql2dpNRZB-60" target="IxFJVcucLCqql2dpNRZB-52">
          <mxGeometry width="50" height="50" relative="1" as="geometry">
            <mxPoint x="-320" y="510" as="sourcePoint" />
            <mxPoint x="-270" y="460" as="targetPoint" />
          </mxGeometry>
        </mxCell>
        <mxCell id="IxFJVcucLCqql2dpNRZB-76" value="" style="endArrow=none;html=1;rounded=0;entryX=0.192;entryY=1.05;entryDx=0;entryDy=0;entryPerimeter=0;" edge="1" parent="1" source="IxFJVcucLCqql2dpNRZB-61" target="IxFJVcucLCqql2dpNRZB-52">
          <mxGeometry width="50" height="50" relative="1" as="geometry">
            <mxPoint x="-331" y="492" as="sourcePoint" />
            <mxPoint x="-290" y="460" as="targetPoint" />
          </mxGeometry>
        </mxCell>
        <mxCell id="IxFJVcucLCqql2dpNRZB-77" value="" style="endArrow=none;html=1;rounded=0;entryX=0.667;entryY=1;entryDx=0;entryDy=0;entryPerimeter=0;exitX=0.383;exitY=0.075;exitDx=0;exitDy=0;exitPerimeter=0;" edge="1" parent="1" source="IxFJVcucLCqql2dpNRZB-53" target="IxFJVcucLCqql2dpNRZB-52">
          <mxGeometry width="50" height="50" relative="1" as="geometry">
            <mxPoint x="-299" y="571" as="sourcePoint" />
            <mxPoint x="-267" y="463" as="targetPoint" />
          </mxGeometry>
        </mxCell>
        <mxCell id="IxFJVcucLCqql2dpNRZB-78" value="" style="endArrow=none;html=1;rounded=0;entryX=0.875;entryY=1.05;entryDx=0;entryDy=0;entryPerimeter=0;exitX=0.008;exitY=0.3;exitDx=0;exitDy=0;exitPerimeter=0;" edge="1" parent="1" source="IxFJVcucLCqql2dpNRZB-54" target="IxFJVcucLCqql2dpNRZB-52">
          <mxGeometry width="50" height="50" relative="1" as="geometry">
            <mxPoint x="-164" y="576" as="sourcePoint" />
            <mxPoint x="-210" y="460" as="targetPoint" />
          </mxGeometry>
        </mxCell>
        <mxCell id="IxFJVcucLCqql2dpNRZB-79" value="" style="endArrow=none;html=1;rounded=0;entryX=1;entryY=0.75;entryDx=0;entryDy=0;exitX=0;exitY=0.625;exitDx=0;exitDy=0;exitPerimeter=0;" edge="1" parent="1" source="IxFJVcucLCqql2dpNRZB-62" target="IxFJVcucLCqql2dpNRZB-52">
          <mxGeometry width="50" height="50" relative="1" as="geometry">
            <mxPoint x="-89" y="534" as="sourcePoint" />
            <mxPoint x="-185" y="463" as="targetPoint" />
          </mxGeometry>
        </mxCell>
        <mxCell id="IxFJVcucLCqql2dpNRZB-80" value="" style="endArrow=none;html=1;rounded=0;entryX=1.017;entryY=0.383;entryDx=0;entryDy=0;exitX=0.05;exitY=0.763;exitDx=0;exitDy=0;exitPerimeter=0;entryPerimeter=0;" edge="1" parent="1" source="IxFJVcucLCqql2dpNRZB-59" target="IxFJVcucLCqql2dpNRZB-52">
          <mxGeometry width="50" height="50" relative="1" as="geometry">
            <mxPoint x="-70" y="440" as="sourcePoint" />
            <mxPoint x="-170" y="445" as="targetPoint" />
          </mxGeometry>
        </mxCell>
        <mxCell id="IxFJVcucLCqql2dpNRZB-81" value="" style="endArrow=none;html=1;rounded=0;exitX=1;exitY=0;exitDx=0;exitDy=0;" edge="1" parent="1" source="IxFJVcucLCqql2dpNRZB-72" target="IxFJVcucLCqql2dpNRZB-66">
          <mxGeometry width="50" height="50" relative="1" as="geometry">
            <mxPoint x="-1050" y="620" as="sourcePoint" />
            <mxPoint x="-1000" y="570" as="targetPoint" />
          </mxGeometry>
        </mxCell>
        <mxCell id="IxFJVcucLCqql2dpNRZB-82" value="" style="endArrow=none;html=1;rounded=0;exitX=0.5;exitY=0;exitDx=0;exitDy=0;entryX=0.5;entryY=1;entryDx=0;entryDy=0;" edge="1" parent="1" source="IxFJVcucLCqql2dpNRZB-73" target="IxFJVcucLCqql2dpNRZB-66">
          <mxGeometry width="50" height="50" relative="1" as="geometry">
            <mxPoint x="-838" y="522" as="sourcePoint" />
            <mxPoint x="-781" y="469" as="targetPoint" />
          </mxGeometry>
        </mxCell>
        <mxCell id="IxFJVcucLCqql2dpNRZB-83" value="" style="endArrow=none;html=1;rounded=0;exitX=0;exitY=0;exitDx=0;exitDy=0;entryX=1;entryY=1;entryDx=0;entryDy=0;" edge="1" parent="1" source="IxFJVcucLCqql2dpNRZB-74" target="IxFJVcucLCqql2dpNRZB-66">
          <mxGeometry width="50" height="50" relative="1" as="geometry">
            <mxPoint x="-760" y="550" as="sourcePoint" />
            <mxPoint x="-760" y="490" as="targetPoint" />
          </mxGeometry>
        </mxCell>
        <mxCell id="IxFJVcucLCqql2dpNRZB-85" value="Numero identificatorio" style="ellipse;whiteSpace=wrap;html=1;" vertex="1" parent="1">
          <mxGeometry x="-300" y="-370" width="120" height="80" as="geometry" />
        </mxCell>
        <mxCell id="IxFJVcucLCqql2dpNRZB-86" value="" style="endArrow=none;html=1;rounded=0;entryX=0.5;entryY=1;entryDx=0;entryDy=0;exitX=0.5;exitY=0;exitDx=0;exitDy=0;" edge="1" parent="1" source="IxFJVcucLCqql2dpNRZB-4" target="IxFJVcucLCqql2dpNRZB-85">
          <mxGeometry width="50" height="50" relative="1" as="geometry">
            <mxPoint x="-480" y="-190" as="sourcePoint" />
            <mxPoint x="-430" y="-240" as="targetPoint" />
          </mxGeometry>
        </mxCell>
        <mxCell id="IxFJVcucLCqql2dpNRZB-89" style="edgeStyle=orthogonalEdgeStyle;rounded=0;orthogonalLoop=1;jettySize=auto;html=1;entryX=0;entryY=0;entryDx=0;entryDy=0;" edge="1" parent="1" source="IxFJVcucLCqql2dpNRZB-87" target="IxFJVcucLCqql2dpNRZB-2">
          <mxGeometry relative="1" as="geometry">
            <Array as="points">
              <mxPoint x="210" y="-200" />
              <mxPoint x="210" y="-110" />
            </Array>
          </mxGeometry>
        </mxCell>
        <mxCell id="IxFJVcucLCqql2dpNRZB-87" value="Asociado" style="rhombus;whiteSpace=wrap;html=1;" vertex="1" parent="1">
          <mxGeometry x="-70" y="-240" width="80" height="80" as="geometry" />
        </mxCell>
        <mxCell id="IxFJVcucLCqql2dpNRZB-91" value="Numero" style="ellipse;whiteSpace=wrap;html=1;" vertex="1" parent="1">
          <mxGeometry x="-430" y="-360" width="120" height="80" as="geometry" />
        </mxCell>
        <mxCell id="IxFJVcucLCqql2dpNRZB-92" value="Fecha en que fue solicitado" style="ellipse;whiteSpace=wrap;html=1;" vertex="1" parent="1">
          <mxGeometry x="-490" y="-440" width="120" height="80" as="geometry" />
        </mxCell>
        <mxCell id="IxFJVcucLCqql2dpNRZB-93" value="Monto" style="ellipse;whiteSpace=wrap;html=1;" vertex="1" parent="1">
          <mxGeometry x="-620" y="-440" width="120" height="80" as="geometry" />
        </mxCell>
        <mxCell id="IxFJVcucLCqql2dpNRZB-94" value="" style="endArrow=none;html=1;rounded=0;exitX=0.833;exitY=-0.033;exitDx=0;exitDy=0;exitPerimeter=0;" edge="1" parent="1" source="IxFJVcucLCqql2dpNRZB-3" target="IxFJVcucLCqql2dpNRZB-91">
          <mxGeometry width="50" height="50" relative="1" as="geometry">
            <mxPoint x="-600" y="-230" as="sourcePoint" />
            <mxPoint x="-550" y="-280" as="targetPoint" />
          </mxGeometry>
        </mxCell>
        <mxCell id="IxFJVcucLCqql2dpNRZB-95" value="" style="endArrow=none;html=1;rounded=0;exitX=0.608;exitY=-0.067;exitDx=0;exitDy=0;exitPerimeter=0;entryX=0.425;entryY=1.013;entryDx=0;entryDy=0;entryPerimeter=0;" edge="1" parent="1" source="IxFJVcucLCqql2dpNRZB-3" target="IxFJVcucLCqql2dpNRZB-92">
          <mxGeometry width="50" height="50" relative="1" as="geometry">
            <mxPoint x="-420" y="-222" as="sourcePoint" />
            <mxPoint x="-378" y="-275" as="targetPoint" />
          </mxGeometry>
        </mxCell>
        <mxCell id="IxFJVcucLCqql2dpNRZB-97" value="" style="endArrow=none;html=1;rounded=0;exitX=0.425;exitY=-0.067;exitDx=0;exitDy=0;exitPerimeter=0;entryX=0.717;entryY=0.975;entryDx=0;entryDy=0;entryPerimeter=0;" edge="1" parent="1" source="IxFJVcucLCqql2dpNRZB-3" target="IxFJVcucLCqql2dpNRZB-93">
          <mxGeometry width="50" height="50" relative="1" as="geometry">
            <mxPoint x="-447" y="-224" as="sourcePoint" />
            <mxPoint x="-429" y="-349" as="targetPoint" />
          </mxGeometry>
        </mxCell>
        <mxCell id="IxFJVcucLCqql2dpNRZB-98" value="Tasa de interes" style="ellipse;whiteSpace=wrap;html=1;" vertex="1" parent="1">
          <mxGeometry x="-730" y="-390" width="120" height="80" as="geometry" />
        </mxCell>
        <mxCell id="IxFJVcucLCqql2dpNRZB-99" value="" style="endArrow=none;html=1;rounded=0;entryX=0.25;entryY=0;entryDx=0;entryDy=0;exitX=0.917;exitY=0.863;exitDx=0;exitDy=0;exitPerimeter=0;" edge="1" parent="1" source="IxFJVcucLCqql2dpNRZB-98" target="IxFJVcucLCqql2dpNRZB-3">
          <mxGeometry width="50" height="50" relative="1" as="geometry">
            <mxPoint x="-650" y="-200" as="sourcePoint" />
            <mxPoint x="-600" y="-250" as="targetPoint" />
          </mxGeometry>
        </mxCell>
        <mxCell id="IxFJVcucLCqql2dpNRZB-100" value="cantidad_meses" style="ellipse;whiteSpace=wrap;html=1;" vertex="1" parent="1">
          <mxGeometry x="-740" y="-290" width="120" height="80" as="geometry" />
        </mxCell>
        <mxCell id="IxFJVcucLCqql2dpNRZB-101" value="" style="endArrow=none;html=1;rounded=0;entryX=0;entryY=0;entryDx=0;entryDy=0;exitX=1;exitY=0.5;exitDx=0;exitDy=0;" edge="1" parent="1" source="IxFJVcucLCqql2dpNRZB-100" target="IxFJVcucLCqql2dpNRZB-3">
          <mxGeometry width="50" height="50" relative="1" as="geometry">
            <mxPoint x="-620" y="-160" as="sourcePoint" />
            <mxPoint x="-570" y="-210" as="targetPoint" />
          </mxGeometry>
        </mxCell>
        <mxCell id="IxFJVcucLCqql2dpNRZB-104" style="edgeStyle=orthogonalEdgeStyle;rounded=0;orthogonalLoop=1;jettySize=auto;html=1;entryX=0;entryY=0.5;entryDx=0;entryDy=0;endArrow=none;endFill=0;" edge="1" parent="1" source="IxFJVcucLCqql2dpNRZB-102" target="IxFJVcucLCqql2dpNRZB-16">
          <mxGeometry relative="1" as="geometry" />
        </mxCell>
        <mxCell id="IxFJVcucLCqql2dpNRZB-102" value="Atiende" style="rhombus;whiteSpace=wrap;html=1;" vertex="1" parent="1">
          <mxGeometry x="-40" y="250" width="80" height="80" as="geometry" />
        </mxCell>
        <mxCell id="IxFJVcucLCqql2dpNRZB-108" style="edgeStyle=orthogonalEdgeStyle;rounded=0;orthogonalLoop=1;jettySize=auto;html=1;entryX=0.25;entryY=1;entryDx=0;entryDy=0;exitX=0;exitY=0.5;exitDx=0;exitDy=0;jumpStyle=arc;endArrow=none;endFill=0;" edge="1" parent="1" source="IxFJVcucLCqql2dpNRZB-106" target="IxFJVcucLCqql2dpNRZB-3">
          <mxGeometry relative="1" as="geometry">
            <Array as="points">
              <mxPoint x="-80" y="200" />
              <mxPoint x="-80" y="230" />
              <mxPoint x="-500" y="230" />
            </Array>
          </mxGeometry>
        </mxCell>
        <mxCell id="IxFJVcucLCqql2dpNRZB-106" value="Registra" style="rhombus;whiteSpace=wrap;html=1;" vertex="1" parent="1">
          <mxGeometry x="-40" y="160" width="80" height="80" as="geometry" />
        </mxCell>
        <mxCell id="IxFJVcucLCqql2dpNRZB-109" value="Datos solicitante" style="ellipse;whiteSpace=wrap;html=1;" vertex="1" parent="1">
          <mxGeometry x="-150" y="80" width="120" height="80" as="geometry" />
        </mxCell>
        <mxCell id="IxFJVcucLCqql2dpNRZB-110" value="Sucursal&amp;nbsp;" style="ellipse;whiteSpace=wrap;html=1;" vertex="1" parent="1">
          <mxGeometry x="30" y="80" width="120" height="80" as="geometry" />
        </mxCell>
        <mxCell id="IxFJVcucLCqql2dpNRZB-112" value="" style="endArrow=none;html=1;rounded=0;exitX=1;exitY=0;exitDx=0;exitDy=0;" edge="1" parent="1" source="IxFJVcucLCqql2dpNRZB-106" target="IxFJVcucLCqql2dpNRZB-110">
          <mxGeometry width="50" height="50" relative="1" as="geometry">
            <mxPoint x="-30" y="220" as="sourcePoint" />
            <mxPoint x="20" y="170" as="targetPoint" />
          </mxGeometry>
        </mxCell>
        <mxCell id="IxFJVcucLCqql2dpNRZB-113" value="" style="endArrow=none;html=1;rounded=0;exitX=0;exitY=0;exitDx=0;exitDy=0;entryX=0.758;entryY=0.963;entryDx=0;entryDy=0;entryPerimeter=0;" edge="1" parent="1" source="IxFJVcucLCqql2dpNRZB-106" target="IxFJVcucLCqql2dpNRZB-109">
          <mxGeometry width="50" height="50" relative="1" as="geometry">
            <mxPoint x="33" y="197" as="sourcePoint" />
            <mxPoint x="67" y="163" as="targetPoint" />
          </mxGeometry>
        </mxCell>
        <mxCell id="IxFJVcucLCqql2dpNRZB-116" style="edgeStyle=orthogonalEdgeStyle;rounded=0;orthogonalLoop=1;jettySize=auto;html=1;entryX=0.5;entryY=0;entryDx=0;entryDy=0;endArrow=none;endFill=0;" edge="1" parent="1" source="IxFJVcucLCqql2dpNRZB-114" target="IxFJVcucLCqql2dpNRZB-68">
          <mxGeometry relative="1" as="geometry" />
        </mxCell>
        <mxCell id="IxFJVcucLCqql2dpNRZB-118" style="edgeStyle=orthogonalEdgeStyle;rounded=0;orthogonalLoop=1;jettySize=auto;html=1;entryX=0.5;entryY=1;entryDx=0;entryDy=0;endArrow=none;endFill=0;exitX=0.5;exitY=0;exitDx=0;exitDy=0;" edge="1" parent="1" source="IxFJVcucLCqql2dpNRZB-114" target="IxFJVcucLCqql2dpNRZB-119">
          <mxGeometry relative="1" as="geometry">
            <mxPoint x="-770" y="240" as="sourcePoint" />
            <mxPoint x="-829.9999999999995" y="150" as="targetPoint" />
          </mxGeometry>
        </mxCell>
        <mxCell id="IxFJVcucLCqql2dpNRZB-114" value="Devuelve" style="rhombus;whiteSpace=wrap;html=1;" vertex="1" parent="1">
          <mxGeometry x="-810" y="250" width="80" height="80" as="geometry" />
        </mxCell>
        <mxCell id="IxFJVcucLCqql2dpNRZB-119" value="Cuota" style="rounded=0;whiteSpace=wrap;html=1;" vertex="1" parent="1">
          <mxGeometry x="-830" y="110" width="120" height="60" as="geometry" />
        </mxCell>
        <mxCell id="IxFJVcucLCqql2dpNRZB-120" value="Numero cuota" style="ellipse;whiteSpace=wrap;html=1;" vertex="1" parent="1">
          <mxGeometry x="-990" y="40" width="120" height="80" as="geometry" />
        </mxCell>
        <mxCell id="IxFJVcucLCqql2dpNRZB-121" value="Fecha vencimiento" style="ellipse;whiteSpace=wrap;html=1;" vertex="1" parent="1">
          <mxGeometry x="-900" y="-30" width="120" height="80" as="geometry" />
        </mxCell>
        <mxCell id="IxFJVcucLCqql2dpNRZB-122" value="Fecha pago" style="ellipse;whiteSpace=wrap;html=1;" vertex="1" parent="1">
          <mxGeometry x="-760" y="-40" width="120" height="80" as="geometry" />
        </mxCell>
        <mxCell id="IxFJVcucLCqql2dpNRZB-123" value="Valor cuota" style="ellipse;whiteSpace=wrap;html=1;" vertex="1" parent="1">
          <mxGeometry x="-670" y="30" width="120" height="80" as="geometry" />
        </mxCell>
        <mxCell id="IxFJVcucLCqql2dpNRZB-124" value="" style="endArrow=none;html=1;rounded=0;entryX=0;entryY=0;entryDx=0;entryDy=0;" edge="1" parent="1" source="IxFJVcucLCqql2dpNRZB-120" target="IxFJVcucLCqql2dpNRZB-119">
          <mxGeometry width="50" height="50" relative="1" as="geometry">
            <mxPoint x="-900" y="170" as="sourcePoint" />
            <mxPoint x="-850" y="120" as="targetPoint" />
          </mxGeometry>
        </mxCell>
        <mxCell id="IxFJVcucLCqql2dpNRZB-125" value="" style="endArrow=none;html=1;rounded=0;entryX=0.919;entryY=-0.041;entryDx=0;entryDy=0;exitX=-0.016;exitY=0.622;exitDx=0;exitDy=0;exitPerimeter=0;entryPerimeter=0;" edge="1" parent="1" source="IxFJVcucLCqql2dpNRZB-123" target="IxFJVcucLCqql2dpNRZB-119">
          <mxGeometry width="50" height="50" relative="1" as="geometry">
            <mxPoint x="-877" y="99" as="sourcePoint" />
            <mxPoint x="-820" y="120" as="targetPoint" />
          </mxGeometry>
        </mxCell>
        <mxCell id="IxFJVcucLCqql2dpNRZB-126" value="" style="endArrow=none;html=1;rounded=0;entryX=0.5;entryY=1;entryDx=0;entryDy=0;exitX=0.667;exitY=0;exitDx=0;exitDy=0;exitPerimeter=0;" edge="1" parent="1" source="IxFJVcucLCqql2dpNRZB-119" target="IxFJVcucLCqql2dpNRZB-122">
          <mxGeometry width="50" height="50" relative="1" as="geometry">
            <mxPoint x="-810" y="100" as="sourcePoint" />
            <mxPoint x="-760" y="50" as="targetPoint" />
          </mxGeometry>
        </mxCell>
        <mxCell id="IxFJVcucLCqql2dpNRZB-127" value="" style="endArrow=none;html=1;rounded=0;entryX=0.781;entryY=0.956;entryDx=0;entryDy=0;exitX=0.25;exitY=0;exitDx=0;exitDy=0;entryPerimeter=0;" edge="1" parent="1" source="IxFJVcucLCqql2dpNRZB-119" target="IxFJVcucLCqql2dpNRZB-121">
          <mxGeometry width="50" height="50" relative="1" as="geometry">
            <mxPoint x="-740" y="120" as="sourcePoint" />
            <mxPoint x="-730" y="40" as="targetPoint" />
          </mxGeometry>
        </mxCell>
      </root>
    </mxGraphModel>
  </diagram>
</mxfile>
